<?xml version="1.0" standalone="no"?>
<!DOCTYPE svg PUBLIC "-//W3C//DTD SVG 20010904//EN"
 "http://www.w3.org/TR/2001/REC-SVG-20010904/DTD/svg10.dtd">
<svg version="1.0" xmlns="http://www.w3.org/2000/svg"
 width="160.000000pt" height="160.000000pt" viewBox="0 0 160.000000 160.000000"
 preserveAspectRatio="xMidYMid meet">
<metadata>
Created by potrace 1.14, written by Peter Selinger 2001-2017
</metadata>
<g transform="translate(0.000000,160.000000) scale(0.100000,-0.100000)"
fill="#000000" stroke="none">
<path d="M1130 1573 c-47 -24 -72 -71 -72 -133 1 -45 -1 -50 -25 -56 -31 -8
-93 20 -218 102 -129 83 -148 82 -230 -17 -137 -165 -165 -216 -143 -262 7
-14 20 -17 71 -15 138 4 201 -79 148 -195 -23 -50 -71 -97 -128 -127 -101 -52
-179 -21 -215 85 -9 27 -24 54 -32 60 -27 17 -78 -20 -142 -102 -32 -42 -63
-81 -69 -87 -33 -36 -65 -96 -65 -123 0 -41 17 -59 140 -144 114 -78 163 -123
157 -142 -2 -7 -23 -19 -48 -28 -80 -28 -98 -41 -120 -86 -55 -113 34 -247
191 -288 113 -29 204 47 199 166 -3 54 -1 58 30 64 32 6 61 -9 201 -101 69
-46 138 -85 153 -88 38 -7 75 29 176 172 120 168 120 217 2 213 -143 -4 -205
93 -141 224 26 54 71 94 138 121 44 18 61 20 91 12 51 -14 97 -61 110 -114 14
-56 42 -72 79 -48 32 21 45 37 139 167 76 105 91 143 73 177 -6 11 -69 59
-141 106 -71 47 -136 96 -145 109 -16 25 -12 45 9 45 98 1 170 104 134 192
-49 117 -210 191 -307 141z"/>
</g>
</svg>
